PathFileType	4	(X/Y/Z)	C:\Users\Alexander Denk\OneDrive - Universitaet Duisburg-Essen\Dokumente\GitHub\artisynth_dissertation_models\src\artisynth\models\gait_model\Models\EP010DR1980_BE_3Gang01\Input\EP010DR1980_BE_3Gang01_positions.trc
DataRate	CameraRate	NumFrames	NumMarkers	Units	OrigDataRate	OrigDataStartFrame	OrigNumFrames
100	100	4	41	m	100	64	103
Frame#	Time	LFHD			RFHD			LBHD			RBHD			C7			T10			CLAV			STRN			RBAK			LSHO			LUPA			LELB			LFRM			LWRA			LWRB			LFIN			RSHO			RUPA			RELB			RFRM			RWRA			RWRB			RFIN			LASI			RASI			LPSI			RPSI			LTHI			LKNE			LTIB			LANK			LTOE			LBTO			LHEE			RKNE			RTIB			RANK			RTOE			RBTO			RHEE			RTHI			
		X1	Y1	Z1	X2	Y2	Z2	X3	Y3	Z3	X4	Y4	Z4	X5	Y5	Z5	X6	Y6	Z6	X7	Y7	Z7	X8	Y8	Z8	X9	Y9	Z9	X10	Y10	Z10	X11	Y11	Z11	X12	Y12	Z12	X13	Y13	Z13	X14	Y14	Z14	X15	Y15	Z15	X16	Y16	Z16	X17	Y17	Z17	X18	Y18	Z18	X19	Y19	Z19	X20	Y20	Z20	X21	Y21	Z21	X22	Y22	Z22	X23	Y23	Z23	X24	Y24	Z24	X25	Y25	Z25	X26	Y26	Z26	X27	Y27	Z27	X28	Y28	Z28	X29	Y29	Z29	X30	Y30	Z30	X31	Y31	Z31	X32	Y32	Z32	X33	Y33	Z33	X34	Y34	Z34	X35	Y35	Z35	X36	Y36	Z36	X37	Y37	Z37	X38	Y38	Z38	X39	Y39	Z39	X40	Y40	Z40	X41	Y41	Z41	X42	Y42	Z42	X43	Y43	Z43	

65	0.64	0.243018951416016	1.73171044921875	0.0265253607058059	0.372765777587891	1.73705017089844	0.0267027288698684	0.2307646484375	1.65547448730469	0.162666962268306	0.381610992431641	1.65838916015625	0.160963348987056	0.305549499511719	1.55380871582031	0.213243622424556	0.272160095214844	1.27506665039062	0.281807709338618	0.2971201171875	1.42111682128906	0.0676031805300247	0.283373077392578	1.28958605957031	0.0453384100222122	0.446284881591797	1.4433662109375	0.245037933947993	0.107426307678223	1.51571020507813	0.144286347033931	0.0587719421386719	1.37276257324219	0.132957123401118	0.0178953266143799	1.18052319335937	0.109998871447993	0.0270481472015381	0.947674987792969	0.0292970281862747	0.0750850067138672	0.9174833984375	0.015316437365962	0.0184554252624512	0.905198486328125	0.066568634631587	0.0378113555908203	0.843726928710937	-0.0318789361691942	0.494732849121094	1.49704235839844	0.147442169787837	0.550843322753906	1.22880432128906	0.1553060613894	0.561714660644531	1.13418896484375	0.148500092151118	0.538603515625	0.913800720214844	0.0947450872683058	0.485674102783203	0.878937438964844	0.0582463079714308	0.528743469238281	0.861471008300781	0.121748566272212	0.522636657714844	0.782088256835938	0.0312384344362745	0.1400263671875	1.04532556152344	0.0825637518190871	0.402430297851563	1.05811547851563	0.0665279241823684	0.244325927734375	1.09225476074219	0.252092438342525	0.312073974609375	1.09005712890625	0.250115082385493	0.101789138793945	0.659505432128906	0.112311005237056	0.112078453063965	0.506956298828125	0.133263641955806	0.111812377929687	0.401896728515625	0.239995941760493	0.167325698852539	0.240380081176758	0.489960693957759	0.175372344970703	0.0912663497924805	0.441741730334712	0.189315414428711	0.0453658447265625	0.407336548449946	0.210425216674805	0.2752216796875	0.54829190123315	0.413528930664062	0.509688446044922	0.0372984319948683	0.415608367919922	0.346481689453125	0.0388951116823683	0.35357373046875	0.0643747634887696	0.0367273870729933	0.355372131347656	0.0422921791076661	-0.124092864391851	0.339258941650391	0.0454898567199708	-0.181633635876225	0.303992523193359	0.0290009536743165	0.0912492376589308	0.436015991210937	0.671423645019531	0.0444689642214308
66	0.65	0.244394287109375	1.7337607421875	0.0264844161388923	0.374147766113281	1.73916381835937	0.0263188277599861	0.232414993286133	1.65760266113281	0.162685526978736	0.383231079101563	1.6606181640625	0.160696757447486	0.307518829345703	1.55595031738281	0.213153422486549	0.274431243896484	1.27733898925781	0.282120280396705	0.298313629150391	1.4232314453125	0.0677609053967048	0.284283905029297	1.29169323730469	0.0457357589123297	0.448463043212891	1.44556396484375	0.244265849244361	0.109067474365234	1.51809033203125	0.145124247681861	0.0602390975952148	1.37518371582031	0.134376750123267	0.0191326942443848	1.18282897949219	0.112299845826392	0.0276040000915527	0.949641784667969	0.0324318038342047	0.0755544357299805	0.919329162597656	0.0183199263927984	0.0191570243835449	0.907312622070312	0.0698821822521734	0.0381859703063965	0.845339050292969	-0.0283839310290767	0.496293304443359	1.49919152832031	0.146501200806861	0.552453125	1.23090844726563	0.153505717408424	0.563277709960938	1.13633044433594	0.146532084595923	0.539792724609375	0.916036804199219	0.0924388839123297	0.486655364990234	0.881203186035156	0.0562554732677985	0.53009130859375	0.863686950683594	0.119397013795142	0.523492614746094	0.78451806640625	0.0286962081310796	0.141706192016602	1.04771057128906	0.083647441041236	0.404151214599609	1.06005200195312	0.0667542525646735	0.246191177368164	1.0945546875	0.252791178834205	0.313976837158203	1.09237561035156	0.250384440552955	0.103177185058594	0.662178161621094	0.104118693482642	0.113317535400391	0.509593597412109	0.120090190064673	0.113159240722656	0.404890838623047	0.225687113892798	0.168801910400391	0.244237274169922	0.476062541138892	0.176079132080078	0.096185287475586	0.425620371949439	0.189751770019531	0.0487070541381836	0.391651621949439	0.211718688964844	0.277908630371094	0.535445201051002	0.414286376953125	0.509899780273438	0.0471286422131109	0.415989318847656	0.346680755615234	0.0514002486584234	0.353667755126953	0.0643104095458985	0.0506080733654547	0.355646759033203	0.0422146301269532	-0.11028670202517	0.339680480957031	0.045596851348877	-0.167710774290795	0.303950012207031	0.0290795059204102	0.104970072877173	0.436933044433594	0.671870727539063	0.0511893111584234
67	0.66	0.245634399414063	1.73573132324219	0.0264671532126036	0.375370025634766	1.74119360351563	0.0259819847555723	0.233955123901367	1.65967358398438	0.162737966200885	0.384736053466797	1.66280505371094	0.160452993056354	0.309417266845703	1.55804638671875	0.213107961318072	0.276715026855469	1.27956787109375	0.282519887587604	0.299421264648437	1.42527722167969	0.0679951073141661	0.285134918212891	1.29372680664063	0.0462292381735411	0.450595245361328	1.44774609375	0.243523122450885	0.110632255554199	1.5203974609375	0.146070607802447	0.0616021347045898	1.37753552246094	0.135956227919635	0.020271951675415	1.18507507324219	0.114754872939166	0.0281066226959229	0.951571838378906	0.0356909691305723	0.0759693298339844	0.921153076171875	0.0214355980368223	0.0198140411376953	0.909382446289063	0.0733086449118223	0.0385032348632812	0.846956420898437	-0.0248138526467715	0.497770294189453	1.50131909179688	0.145576955458697	0.554027099609375	1.23300329589844	0.151690480849322	0.564817138671875	1.13846203613281	0.144535695693072	0.540919189453125	0.91828271484375	0.0900477196188535	0.487556091308594	0.883499450683594	0.0541906029196347	0.531381408691406	0.865901184082031	0.116947011611041	0.524239135742188	0.786987487792969	0.0260226341696348	0.143393463134766	1.05008947753906	0.0848733421774474	0.405906982421875	1.06184765625	0.0671386620016662	0.248078414916992	1.09681811523438	0.253636220595416	0.315894622802734	1.09464855957031	0.250783254286822	0.104620910644531	0.665348937988281	0.0962007957907285	0.114720550537109	0.51275439453125	0.107429372450885	0.114577560424805	0.407730773925781	0.21139250721651	0.170271682739258	0.246016204833984	0.461090810439166	0.177466857910156	0.0996459579467774	0.407143727919635	0.191288970947266	0.0514568519592286	0.373067067763385	0.212777542114258	0.278112762451172	0.52192033924776	0.414937805175781	0.510134033203125	0.0574381004782285	0.416316925048828	0.346986114501953	0.0643128563376035	0.353794036865234	0.0642918090820313	0.0644947411032285	0.355992248535156	0.042180332183838	-0.0964849952248965	0.340202758789063	0.0458680992126465	-0.153803415635053	0.303901794433594	0.0292245082855225	0.118678701064166	0.437764007568359	0.672318725585938	0.0582689110251036
68	0.67	0.246741806030273	1.73759057617188	0.0264767457550649	0.376436126708984	1.74310778808594	0.0256961061066274	0.235387313842773	1.66165478515625	0.162826843411315	0.386128509521484	1.66491577148437	0.160235107571471	0.311242584228516	1.56006274414062	0.213109375149596	0.279	1.28171765136719	0.28300140395819	0.300449371337891	1.42722302246094	0.0683026734894399	0.285936492919922	1.29565698242188	0.0468107911652211	0.452675994873047	1.44987609863281	0.24281732192694	0.112122856140137	1.52259631347656	0.147117309719909	0.0628654556274414	1.37978308105469	0.13768304458319	0.0213171062469482	1.18722680664063	0.117352661282409	0.0285538082122803	0.9534296875	0.0390628053253774	0.0763251571655273	0.922919860839844	0.0246470338410023	0.0204272022247314	0.911372863769531	0.0768374635285023	0.0387451438903809	0.848547424316406	-0.0211810301238414	0.499166076660156	1.503390625	0.144680359036315	0.555562255859375	1.23505322265625	0.149872436673034	0.566328186035156	1.14054772949219	0.142519653469909	0.541978271484375	0.920503479003906	0.0875792237824086	0.488373565673828	0.885793090820313	0.052054931790221	0.532605834960937	0.868078247070313	0.114404419094909	0.524872497558594	0.789460632324219	0.0232271730011585	0.145091842651367	1.05242651367188	0.0862188722199086	0.407699401855469	1.06348022460938	0.0676698609894398	0.249974136352539	1.09901220703125	0.254612060696471	0.317815826416016	1.09683996582031	0.251302856594909	0.106090774536133	0.668908935546875	0.0885601197785023	0.116225730895996	0.516325256347656	0.095339843899596	0.1160380859375	0.410343933105469	0.197205200344909	0.171738845825195	0.245756607055664	0.445171386868346	0.179470520019531	0.101571334838867	0.386772277981627	0.193781005859375	0.0534428863525391	0.352066589505065	0.213664108276367	0.275987945556641	0.507686248928893	0.415487121582031	0.510399536132813	0.0680817872589711	0.416608703613281	0.347377593994141	0.0774030152863148	0.353943878173828	0.0643273468017579	0.078340820462096	0.356358673095703	0.0421522674560547	-0.0827161863738415	0.340746459960937	0.0462224998474122	-0.139932922213685	0.303855316162109	0.029437520980835	0.13235980239569	0.438513671875	0.672765502929688	0.0656122438019398
